HIERARCHY
ROOT Hips
{
	OFFSET 0.000000 0.000000 0.000000
	CHANNELS 6 Xposition Yposition Zposition Zrotation Yrotation Xrotation 
	JOINT LHipJoint
	{
		OFFSET 0.000000 0.000000 0.000000
		CHANNELS 3 Zrotation Yrotation Xrotation
		JOINT LeftUpLeg
		{
			OFFSET 1.363060 -1.794630 0.839290
			CHANNELS 3 Zrotation Yrotation Xrotation
			JOINT LeftLeg
			{
				OFFSET 2.448110 -6.726130 0.000000
				CHANNELS 3 Zrotation Yrotation Xrotation
				JOINT LeftFoot
				{
					OFFSET 2.562200 -7.039590 0.000000
					CHANNELS 3 Zrotation Yrotation Xrotation
					JOINT LeftToeBase
					{
						OFFSET 0.157640 -0.433110 2.322550
						CHANNELS 3 Zrotation Yrotation Xrotation
						End Site
						{
							OFFSET 0.000000 0.000000 0.000000
						}
					}
				}
			}
		}
	}
	JOINT RHipJoint
	{
		OFFSET 0.000000 0.000000 0.000000
		CHANNELS 3 Zrotation Yrotation Xrotation
		JOINT RightUpLeg
		{
			OFFSET -1.305520 -1.794630 0.839290
			CHANNELS 3 Zrotation Yrotation Xrotation
			JOINT RightLeg
			{
				OFFSET -2.542530 -6.985550 0.000000
				CHANNELS 3 Zrotation Yrotation Xrotation
				JOINT RightFoot
				{
					OFFSET -2.568260 -7.056230 0.000000
					CHANNELS 3 Zrotation Yrotation Xrotation
					JOINT RightToeBase
					{
						OFFSET -0.164730 -0.452590 2.363150
						CHANNELS 3 Zrotation Yrotation Xrotation
						End Site
						{
							OFFSET 0.000000 0.000000 0.000000
						}
					}
				}
			}
		}
	}
	JOINT LowerBack
	{
		OFFSET 0.000000 0.000000 0.000000
		CHANNELS 3 Zrotation Yrotation Xrotation
		JOINT Spine
		{
			OFFSET 0.028270 2.035590 -0.193380
			CHANNELS 3 Zrotation Yrotation Xrotation
			JOINT Spine1
			{
				OFFSET 0.056720 2.048850 -0.042750
				CHANNELS 3 Zrotation Yrotation Xrotation
				JOINT Neck
				{
					OFFSET 0.000000 0.000000 0.000000
					CHANNELS 3 Zrotation Yrotation Xrotation
					JOINT Neck1
					{
						OFFSET -0.054170 1.746240 0.172020
						CHANNELS 3 Zrotation Yrotation Xrotation
						JOINT Head
						{
							OFFSET 0.104070 1.761360 -0.123970
							CHANNELS 3 Zrotation Yrotation Xrotation
							End Site
							{
								OFFSET 0.000000 0.000000 0.000000
							}
						}
					}
				}
				JOINT LeftShoulder
				{
					OFFSET 0.000000 0.000000 0.000000
					CHANNELS 3 Zrotation Yrotation Xrotation
					JOINT LeftArm
					{
						OFFSET 3.362410 1.200890 -0.311210
						CHANNELS 3 Zrotation Yrotation Xrotation
						JOINT LeftForeArm
						{
							OFFSET 4.983000 -0.000000 -0.000000
							CHANNELS 3 Zrotation Yrotation Xrotation
							JOINT LeftHand
							{
								OFFSET 3.483560 -0.000000 -0.000000
								CHANNELS 3 Zrotation Yrotation Xrotation
								JOINT LeftFingerBase
								{
									OFFSET 0.000000 0.000000 0.000000
									CHANNELS 3 Zrotation Yrotation Xrotation
									JOINT LeftHandIndex1
									{
										OFFSET 0.715260 -0.000000 -0.000000
										CHANNELS 3 Zrotation Yrotation Xrotation
										End Site
										{
											OFFSET 0.000000 0.000000 0.000000
										}
									}
								}
								JOINT LThumb
								{
									OFFSET 0.000000 0.000000 0.000000
									CHANNELS 3 Zrotation Yrotation Xrotation
									End Site
									{
										OFFSET 0.000000 0.000000 0.000000
									}
								}
							}
						}
					}
				}
				JOINT RightShoulder
				{
					OFFSET 0.000000 0.000000 0.000000
					CHANNELS 3 Zrotation Yrotation Xrotation
					JOINT RightArm
					{
						OFFSET -3.136600 1.374050 -0.404650
						CHANNELS 3 Zrotation Yrotation Xrotation
						JOINT RightForeArm
						{
							OFFSET -5.241900 -0.000000 -0.000000
							CHANNELS 3 Zrotation Yrotation Xrotation
							JOINT RightHand
							{
								OFFSET -3.444170 -0.000000 -0.000000
								CHANNELS 3 Zrotation Yrotation Xrotation
								JOINT RightFingerBase
								{
									OFFSET 0.000000 0.000000 0.000000
									CHANNELS 3 Zrotation Yrotation Xrotation
									JOINT RightHandIndex1
									{
										OFFSET -0.622530 -0.000000 -0.000000
										CHANNELS 3 Zrotation Yrotation Xrotation
										End Site
										{
											OFFSET 0.000000 0.000000 0.000000
										}
									}
								}
								JOINT RThumb
								{
									OFFSET 0.000000 0.000000 0.000000
									CHANNELS 3 Zrotation Yrotation Xrotation
									End Site
									{
										OFFSET 0.000000 0.000000 0.000000
									}
								}
							}
						}
					}
				}
			}
		}
	}
}
MOTION
Frames: 10
Frame Time: 0.008333
0.313616 20.914923 -8.262191 -2.233393 2.319585 7.607875 -0.147919 -0.991031 -0.948703 -13.562071 -0.211698 -32.983316 2.285047 11.547842 31.464916 0.177166 9.832081 22.681830 0.062084 1.594171 4.385639 -1.783625 0.482873 -0.561453 19.396734 3.932230 -33.423394 -4.298665 -13.783008 39.497675 0.368157 -9.418001 15.261984 -0.713548 -5.393857 15.036514 -0.396538 -0.348395 11.314657 1.507157 -0.102659 -0.726833 2.317100 -0.555227 4.866090 -3.359388 -1.051326 -7.401714 3.148115 -1.000917 28.862987 0.417171 0.073386 10.507614 9.842150 4.043687 -0.115057 -106.376324 -27.101581 39.251763 10.749193 -20.875768 -2.151642 0.064115 -0.509840 -18.161605 26.904265 -8.986359 -4.264174 -7.125000 0.000000 0.000000 0.091769 20.555303 -0.053966 -8.626363 -3.126697 0.072702 97.773760 24.183759 19.877970 -10.933417 22.011180 -2.456843 0.765352 0.673641 30.664550 -24.363258 -22.102155 10.223868 7.125000 0.000000 0.000000 4.746909 -55.071172 -1.176093
0.309754 20.855053 -8.101065 -2.217427 2.390307 7.420765 -0.167072 -1.038389 -0.970889 -13.616660 -0.035073 -33.359895 1.968218 11.146113 30.210793 0.250007 9.032056 22.299009 0.028065 1.057882 2.908216 -1.777388 0.513549 -0.562861 19.333527 3.987364 -33.833218 -4.134083 -13.637420 38.979880 0.349561 -8.524597 14.191735 -0.578923 -4.867092 13.530943 -0.519163 -0.357762 11.247759 1.505380 -0.128298 -0.751061 2.376820 -0.573839 4.844850 -3.315999 -1.047994 -7.485927 3.194131 -1.013937 29.086068 0.426068 0.082341 10.624432 9.841853 4.061088 -0.120790 -106.534859 -26.998306 39.133995 10.580048 -20.604540 -2.089719 0.061396 -0.507612 -17.812599 26.581092 -8.824791 -4.127128 -7.125000 0.000000 0.000000 -0.133461 20.756657 0.077347 -8.616805 -3.139257 0.081910 97.888781 23.792368 19.444002 -10.803817 21.814331 -2.400880 0.767529 0.680280 30.912178 -24.287103 -22.289031 10.266124 7.125000 0.000000 0.000000 4.900204 -55.261236 -1.236748
0.305720 20.776417 -7.934308 -2.224315 2.476113 7.175976 -0.186841 -1.077700 -0.987314 -13.603336 0.062616 -33.605241 1.689837 10.773330 29.071405 0.310394 8.290250 21.872127 0.005576 0.446651 1.227410 -1.768142 0.538283 -0.563162 19.284913 4.033418 -34.089052 -3.964918 -13.477172 38.430113 0.323708 -7.587160 13.040391 -0.445951 -4.280425 11.867699 -0.615199 -0.375133 11.137432 1.503756 -0.162771 -0.769483 2.419261 -0.595419 4.857634 -3.282439 -1.039799 -7.516732 3.273138 -1.034421 29.313095 0.450213 0.090476 10.722074 9.839149 4.081910 -0.119949 -106.655991 -26.858403 38.978730 10.424126 -20.358663 -2.033234 0.058853 -0.506730 -17.660676 26.296413 -8.740727 -4.036759 -7.125000 0.000000 0.000000 -0.334085 20.869168 0.193152 -8.607973 -3.159036 0.094617 98.019581 23.370465 18.935765 -10.673491 21.618663 -2.345573 0.770023 0.685697 31.159764 -24.241261 -22.427228 10.302110 7.125000 0.000000 0.000000 5.004574 -55.405355 -1.280627
0.301658 20.679637 -7.761320 -2.257550 2.577942 6.866709 -0.208808 -1.107111 -0.997396 -13.508890 0.066809 -33.698913 1.454082 10.438192 28.062932 0.348172 7.674947 21.405752 0.001172 -0.208117 -0.571809 -1.754231 0.556285 -0.562690 19.256816 4.061241 -34.173845 -3.791743 -13.300051 37.838938 0.291187 -6.671398 11.890430 -0.322772 -3.651162 10.097292 -0.678544 -0.402387 10.977345 1.502786 -0.207810 -0.780315 2.442435 -0.621120 4.912217 -3.259075 -1.030968 -7.493470 3.375711 -1.065184 29.549000 0.485883 0.095292 10.801206 9.834045 4.105836 -0.112909 -106.738042 -26.702237 38.789690 10.272161 -20.123790 -1.978529 0.056337 -0.507130 -17.668598 26.061355 -8.713450 -3.983310 -7.125000 0.000000 0.000000 -0.500798 20.915865 0.289003 -8.599811 -3.185613 0.111369 98.160853 22.929338 18.377421 -10.539133 21.420045 -2.289786 0.772608 0.690124 31.415065 -24.212804 -22.522547 10.328471 7.125000 0.000000 0.000000 5.075743 -55.506972 -1.311456
0.297955 20.564103 -7.581430 -2.323651 2.694425 6.480852 -0.236381 -1.123931 -0.999609 -13.319701 -0.025667 -33.608738 1.265300 10.147887 27.195723 0.356515 7.293665 20.976917 0.019565 -0.877555 -2.412052 -1.732422 0.566179 -0.561477 19.259363 4.054600 -34.057338 -3.614604 -13.101459 37.188953 0.256038 -5.892711 10.904266 -0.222759 -3.032128 8.368676 -0.697610 -0.440486 10.756646 1.502362 -0.263872 -0.782981 2.438923 -0.650887 5.016396 -3.242009 -1.027816 -7.426678 3.490298 -1.111186 29.818632 0.528193 0.094000 10.874617 9.826151 4.134061 -0.099812 -106.775445 -26.536056 38.556633 10.117506 -19.889051 -1.923193 0.053611 -0.508930 -17.730066 25.886741 -8.701921 -3.947751 -7.125000 0.000000 0.000000 -0.623695 20.941995 0.359562 -8.592292 -3.219185 0.132314 98.307945 22.467138 17.798027 -10.399585 21.218188 -2.233325 0.775874 0.692561 31.686450 -24.224218 -22.547168 10.344873 7.125000 0.000000 0.000000 5.077812 -55.541288 -1.316202
0.295238 20.432527 -7.394539 -2.416746 2.809517 6.013036 -0.272548 -1.127397 -0.992211 -13.059087 -0.170943 -33.333926 1.116261 9.897056 26.445912 0.339657 7.181515 20.677139 0.058984 -1.545535 -4.251756 -1.700903 0.567945 -0.559650 19.291856 4.003538 -33.739162 -3.434348 -12.881415 36.479625 0.223714 -5.312815 10.201943 -0.148364 -2.474130 6.818417 -0.678713 -0.483781 10.486387 1.501750 -0.323919 -0.777989 2.408608 -0.681493 5.162378 -3.205027 -1.033410 -7.324902 3.579842 -1.168363 30.134465 0.557070 0.088131 10.950997 9.816903 4.166504 -0.081837 -106.775459 -26.369610 38.279597 9.947154 -19.631967 -1.862500 0.050241 -0.511738 -17.718038 25.763508 -8.670342 -3.911196 -7.125000 0.000000 0.000000 -0.708363 20.987532 0.407694 -8.583680 -3.257316 0.157022 98.453281 21.989990 17.223665 -10.249835 21.004848 -2.173646 0.779680 0.694662 31.981905 -24.253487 -22.562707 10.366098 7.125000 0.000000 0.000000 5.057652 -55.570063 -1.314532
0.293444 20.285061 -7.200491 -2.533369 2.914748 5.460176 -0.319141 -1.116709 -0.973108 -12.750823 -0.326640 -32.876461 1.002409 9.682315 25.801428 0.305551 7.335019 20.582758 0.114095 -2.162942 -5.956766 -1.658702 0.561065 -0.556929 19.356305 3.897654 -33.217548 -3.252565 -12.640522 35.714416 0.200688 -4.977818 9.853478 -0.100572 -2.038780 5.613134 -0.626489 -0.530013 10.167645 1.500929 -0.385832 -0.766891 2.355830 -0.712174 5.345080 -3.161212 -1.044812 -7.200818 3.648388 -1.230401 30.521824 0.578872 0.079675 11.045457 9.805731 4.203183 -0.059711 -106.743516 -26.202200 37.946920 9.754581 -19.340915 -1.794301 0.045872 -0.515351 -17.553152 25.684501 -8.605072 -3.865839 -7.125000 0.000000 0.000000 -0.759763 21.068160 0.435875 -8.574159 -3.299252 0.185174 98.588920 21.496376 16.674909 -10.087523 20.776550 -2.109978 0.784508 0.695706 32.316421 -24.310345 -22.550672 10.389445 7.125000 0.000000 0.000000 4.997656 -55.575610 -1.299508
0.292647 20.121379 -6.999373 -2.666541 3.007193 4.830254 -0.375986 -1.092150 -0.940413 -12.424115 -0.458282 -32.253483 0.917383 9.499437 25.251938 0.268857 7.680273 20.726959 0.175869 -2.693228 -7.426364 -1.606544 0.545135 -0.552377 19.449539 3.733095 -32.508121 -3.071692 -12.382083 34.906297 0.190860 -4.874997 9.814245 -0.073269 -1.743505 4.797493 -0.547090 -0.576843 9.799537 1.499351 -0.447813 -0.754657 2.283203 -0.741368 5.548163 -3.119163 -1.056747 -7.045157 3.702340 -1.291014 30.985008 0.598771 0.071092 11.158803 9.792651 4.243395 -0.033463 -106.684723 -26.016845 37.544516 9.543207 -19.019646 -1.720275 0.040380 -0.519624 -17.204148 25.630767 -8.507184 -3.809069 -7.125000 0.000000 0.000000 -0.791778 21.183775 0.452179 -8.564081 -3.344362 0.216281 98.710004 20.983186 16.150985 -9.907694 20.524349 -2.040368 0.790459 0.695826 32.715681 -24.381875 -22.528947 10.416003 7.125000 0.000000 0.000000 4.918501 -55.574328 -1.278692
0.292634 19.941122 -6.791485 -2.810168 3.086836 4.132954 -0.441342 -1.054510 -0.892626 -12.103517 -0.540835 -31.487506 0.854296 9.343871 24.789749 0.248454 8.095100 21.101426 0.236826 -3.128195 -8.636235 -1.546616 0.519993 -0.545186 19.567344 3.514064 -31.630290 -2.894382 -12.110956 34.073991 0.194211 -4.942830 9.960216 -0.059423 -1.572419 4.325309 -0.448298 -0.623105 9.383096 1.497440 -0.509542 -0.745229 2.197892 -0.768770 5.757953 -3.088998 -1.066558 -6.850927 3.746406 -1.346542 31.515116 0.620844 0.063136 11.286949 9.778006 4.286004 -0.003541 -106.604198 -25.805711 37.072469 9.318830 -18.676340 -1.642907 0.033841 -0.524316 -16.716886 25.577623 -8.400617 -3.748227 -7.125000 0.000000 0.000000 -0.823200 21.309454 0.467776 -8.553634 -3.391915 0.249844 98.809090 20.451456 15.649760 -9.709575 20.245588 -1.964766 0.797155 0.695376 33.196400 -24.442450 -22.511954 10.439225 7.125000 0.000000 0.000000 4.853379 -55.576124 -1.261888
0.293318 19.744237 -6.577142 -2.958125 3.151836 3.381414 -0.512587 -1.005188 -0.828876 -11.806940 -0.562199 -30.603277 0.806203 9.210407 24.406397 0.264702 8.450830 21.686177 0.293513 -3.482499 -9.625155 -1.481628 0.485885 -0.534569 19.701138 3.253568 -30.608372 -2.723262 -11.833042 33.237904 0.205936 -5.094553 10.174526 -0.052555 -1.479191 4.068470 -0.334403 -0.667086 8.918858 1.494934 -0.569636 -0.742856 2.102703 -0.793403 5.960555 -3.079524 -1.073484 -6.613972 3.786881 -1.396684 32.093147 0.648993 0.054894 11.422533 9.762015 4.329891 0.029470 -106.500580 -25.561055 36.543901 9.093030 -18.329362 -1.566609 0.026475 -0.529287 -16.175472 25.500363 -8.320049 -3.695932 -7.125000 0.000000 0.000000 -0.873100 21.408062 0.494215 -8.543589 -3.441421 0.285012 98.882993 19.899382 15.160943 -9.495987 19.943578 -1.884499 0.804501 0.694200 33.762018 -24.486828 -22.499985 10.456666 7.125000 0.000000 0.000000 4.807936 -55.579985 -1.250512
